<svg xmlns="http://www.w3.org/2000/svg" aria-hidden="true" style="position:absolute;width:0;height:0;overflow:hidden"><defs><symbol id="icon-apple-icon" viewBox="0 0 32 32"><path d="m24.739 17.001-.006.002c.043 4.84 4.245 6.45 4.294 6.472-.038.112-.671 2.294-2.216 4.55-1.335 1.951-2.716 3.892-4.896 3.933-2.144.042-2.832-1.27-5.282-1.27S13.416 31.92 11.391 32c-2.104.078-3.706-2.106-5.05-4.05-2.75-3.97-4.85-11.226-2.029-16.122 1.4-2.433 3.904-3.972 6.62-4.012 2.066-.038 4.018 1.393 5.28 1.393 1.266 0 3.636-1.72 6.128-1.468 1.044.043 3.972.42 5.852 3.17-.149.096-3.494 2.04-3.454 6.092zM20.712 5.109l-.002.002c-1.117 1.351-2.95 2.404-4.746 2.264-.242-1.838.663-3.751 1.7-4.952 1.154-1.352 3.105-2.359 4.713-2.424.206 1.876-.548 3.756-1.664 5.11z"/></symbol><symbol id="icon-Burger" viewBox="0 0 32 32"><path fill="none" stroke="#fff" stroke-linecap="round" stroke-width="2.462" d="M1.231 7.385h29.538M1.231 16h29.538M1.231 24.615h29.538" style="stroke:var(--color1, #fff)"/></symbol><symbol id="icon-cib_linkedin-in" viewBox="0 0 32 32"><path fill="#fff" d="M8.268 28H2.463V9.306h5.805V28zM5.362 6.756C3.506 6.756 2 5.218 2 3.362A3.366 3.366 0 0 1 5.362 0a3.366 3.366 0 0 1 3.362 3.362c0 1.856-1.506 3.394-3.362 3.394zM29.994 28h-5.792v-9.1c0-2.169-.044-4.95-3.018-4.95-3.018 0-3.481 2.356-3.481 4.794V28h-5.799V9.306h5.567v2.55h.081c.775-1.469 2.668-3.019 5.492-3.019 5.875 0 6.955 3.869 6.955 8.894V28h-.005z" style="fill:var(--color1, #fff)"/></symbol><symbol id="icon-Vector-2-converted" viewBox="0 0 32 32"><path fill="#fff" d="M10.105.087a.33.33 0 0 0-.078.191v.001c0 .062.357.605.852 1.297l.852 1.191-.484.257C9.426 3.988 8.124 5.355 7.461 7c-.176.436-.392 1.24-.435 1.616l-.023.202h18.012l-.031-.225c-.313-2.29-1.861-4.339-4.204-5.559l-.508-.265.85-1.183c.871-1.212.941-1.348.778-1.511-.119-.12-.282-.09-.43.08-.075.085-.494.66-.934 1.276l-.799 1.121-.339-.116a10.928 10.928 0 0 0-1.699-.422l-.068-.009c-.652-.104-2.482-.116-3.123-.02-.54.08-1.463.299-1.9.45l-.336.116-.802-1.12c-.383-.543-.69-.958-1.006-1.367l.069.093c-.152-.175-.308-.2-.427-.068zm2.571 4.556c.823.42.618 1.578-.316 1.78-.38.082-.887-.188-1.058-.564-.375-.826.544-1.638 1.374-1.215zm7.73.001c.64.327.661 1.269.037 1.632-.284.165-.501.194-.802.107-.569-.165-.867-.803-.611-1.305.113-.221.387-.468.561-.507a1.88 1.88 0 0 0 .177-.047c.1-.038.459.029.637.12zm-17.23 5.488c.185-.066.342-.081.713-.068.423.015.509.035.793.174l.012.006c.4.203.726.529.936.939l.154.311.012 4.288c.014 4.729.028 4.5-.282 4.99-.771 1.226-2.621 1.245-3.404.036-.351-.544-.34-.367-.324-5.069l.014-4.196.149-.317c.253-.534.649-.888 1.225-1.094zm24.5-.038c.084-.021.356-.035.603-.028.394.01.492.03.77.161.362.17.736.496.911.796.266.453.263.401.263 4.863 0 3.96-.004 4.121-.093 4.413l-.004.014a2.059 2.059 0 0 1-1.183 1.266c-.38.15-1.101.149-1.482-.002a2.07 2.07 0 0 1-1.172-1.22c-.096-.283-.097-.363-.084-4.576l.012-4.288.154-.311c.252-.513.785-.956 1.306-1.089zM7.04 17.278v-7.18h18.016l-.025 14.436-.123.26c-.147.31-.444.62-.728.757-.306.148-.668.19-1.627.191h-.865l-.002 2.074c-.001 1.141-.021 2.229-.046 2.419a1.915 1.915 0 0 1-.565 1.152 2.016 2.016 0 0 1-1.113.578c-.791.136-1.68-.28-2.088-.977-.25-.426-.263-.579-.263-3.004v-2.242h-3.129v2.174c0 1.262-.02 2.28-.047 2.426-.222 1.171-1.436 1.916-2.554 1.569a2.91 2.91 0 0 1-.492-.21c-.254-.149-.611-.525-.742-.783-.229-.45-.241-.595-.241-2.954V25.75l-1.055-.018c-.973-.017-1.076-.027-1.338-.13-.38-.15-.734-.504-.871-.871l-.102-.273v-7.18z" style="fill:var(--color1, #fff)"/></symbol><symbol id="icon-Vector-3-converted" viewBox="0 0 32 32"><path fill="#fff" d="M19.783 1.218a7.474 7.474 0 0 0-4.113 1.716l.012-.009a7.471 7.471 0 0 0-2.611 4.955l-.003.031a63.09 63.09 0 0 0-.032 2.764v-.032 2.393H8.592v5.927h4.444v11.851h5.927V18.963h4.441l.03-.112.729-2.91.713-2.853c.016-.048-.139-.052-2.949-.052h-2.965l.007-2.377.009-2.379.071-.178c.157-.426.488-.756.905-.909l.011-.003c.167-.064.192-.064 2.546-.073l2.379-.009V1.184l-2.423.004a95.34 95.34 0 0 0-2.683.028z" style="fill:var(--color1, #fff)"/></symbol><symbol id="icon-Vector-4-converted" viewBox="0 0 32 32"><path fill="#fff" d="M21.493 3.675a5.449 5.449 0 0 0-1.444.502l.031-.014c-1.802.886-3.091 2.575-3.409 4.587l-.005.035c-.051.411-.08.886-.08 1.369v.086-.004.928l-.948-.034a14.499 14.499 0 0 1-8.392-3.042l.033.025c-.928-.706-2.304-2.119-2.903-2.983-.068-.098-.142-.156-.165-.133-.08.163-.16.363-.227.569l-.01.035c-.914 2.638-1.186 5.401-.772 7.831.66 3.879 3.001 6.869 6.974 8.907l.912.468-.519.324a16.77 16.77 0 0 1-3.758 1.711l-.121.033c-1.245.388-2.68.629-4.166.665h-.019l-.987.036.88.436c2.04 1.046 4.416 1.781 6.928 2.069l.096.009c.937.107 2.956.121 3.803.025 3.104-.352 5.652-1.246 8.02-2.816.99-.658 1.66-1.211 2.567-2.121 3.056-3.065 4.757-7.052 5.097-11.948.059-.844.041-2.171-.034-2.484-.027-.116.028-.203.356-.56A10.33 10.33 0 0 0 31.1 5.319l.026-.067c.233-.54.553-1.484.553-1.632 0-.023-.235.11-.521.295a14.555 14.555 0 0 1-3.154 1.542l-.104.032-.5.165-.469-.439a6.222 6.222 0 0 0-2.657-1.478l-.044-.01c-.61-.164-2.096-.19-2.738-.05z" style="fill:var(--color1, #fff)"/></symbol><symbol id="icon-Vector-converted" viewBox="0 0 32 32"><path fill="#fff" d="M29.173.752c-.27.104-.77.589-6.733 6.547L16 13.733 9.613 7.354C5.413 3.159 3.16.946 3.031.887 1.917.385.722 1.129.729 2.321c.005.717-.427.242 6.621 7.293l6.384 6.387-6.408 6.413C2.702 27.043.884 28.894.8 29.067c-.16.32-.195.806-.086 1.182.246.845 1.234 1.32 2.088 1.005.31-.115.522-.32 6.76-6.552l6.44-6.434 6.413 6.406c7.104 7.098 6.565 6.61 7.294 6.603.803-.005 1.453-.59 1.574-1.421.027-.189.006-.35-.08-.64l-.117-.389L18.268 16l6.434-6.44c6.235-6.242 6.437-6.45 6.552-6.76a1.612 1.612 0 0 0-.34-1.673l.001.001c-.416-.443-1.154-.602-1.741-.376z" style="fill:var(--color1, #fff)"/></symbol></defs></svg>